HIERARCHY
ROOT Hips
{
  OFFSET 0 0 0
  CHANNELS 6 Xposition Yposition Zposition Zrotation Yrotation Xrotation
  JOINT LeftThigh
  {
    OFFSET 8.409438 0 -5.917753
    CHANNELS 3 Zrotation Yrotation Xrotation
    JOINT LeftLeg
    {
      OFFSET 0 0 -42.358652
      CHANNELS 3 Zrotation Yrotation Xrotation
      JOINT LeftFoot
      {
        OFFSET 0 0 -39.357303
        CHANNELS 3 Zrotation Yrotation Xrotation
      }
    }
  }
  JOINT RightThigh
  {
    OFFSET -8.409438 0 -5.917753
    CHANNELS 3 Zrotation Yrotation Xrotation
    JOINT RightLeg
    {
      OFFSET 0 0 -42.358652
      CHANNELS 3 Zrotation Yrotation Xrotation
      JOINT RightFoot
      {
        OFFSET 0 0 -39.357303
        CHANNELS 3 Zrotation Yrotation Xrotation
      }
    }
  }
  JOINT SpineLow
  {
    OFFSET 0 0 4.719101
    CHANNELS 3 Zrotation Yrotation Xrotation
    JOINT SpineMid
    {
      OFFSET 0 0 12.899191
      CHANNELS 3 Zrotation Yrotation Xrotation
      JOINT Chest
      {
        OFFSET 0 0 12.899191
        CHANNELS 3 Zrotation Yrotation Xrotation
        JOINT LeftShoulder
        {
          OFFSET 7.550562 1.41573 9.438202
          CHANNELS 3 Zrotation Yrotation Xrotation
          JOINT LeftArm
          {
            OFFSET 9.155056 0 4.247191
            CHANNELS 3 Zrotation Yrotation Xrotation
            JOINT LeftForearm
            {
              OFFSET 0 0 25.771955
              CHANNELS 3 Zrotation Yrotation Xrotation
              JOINT LeftHand
              {
                OFFSET 0 0 25.197169
                CHANNELS 3 Zrotation Yrotation Xrotation
              }
            }
          }
        }
        JOINT RightShoulder
        {
          OFFSET -7.550562 1.41573 9.438202
          CHANNELS 3 Zrotation Yrotation Xrotation
          JOINT RightArm
          {
            OFFSET -9.155056 0 4.247191
            CHANNELS 3 Zrotation Yrotation Xrotation
            JOINT RightForearm
            {
              OFFSET 0 0 -25.771955
              CHANNELS 3 Zrotation Yrotation Xrotation
              JOINT RightHand
              {
                OFFSET 0 0 -25.197169
                CHANNELS 3 Zrotation Yrotation Xrotation
              }
            }
          }
        }
        JOINT Neck
        {
          OFFSET 0 0 15.101124
          CHANNELS 3 Zrotation Yrotation Xrotation
          JOINT Head
          {
            OFFSET 0 0 11.325843
            CHANNELS 3 Zrotation Yrotation Xrotation
            End Site
            {
              OFFSET 0 0 14.157303
            }
          }
        }
      }
    }
  }
}
MOTION
Frames: 17
Frame Time: 0.0
0.0  101.685394  0.0  0.696718  7.928174  -106.899883  20.757233  -25.703817  -78.61152  32.55222  35.056691  108.408134  -6.959344  -4.626929  -3.325726  -20.960112  0.552496  -10.757712  6.046861  5.815318  20.800947  28.063433  -1.439981  8.736956  -6.54216  1.986589  2.187141  -17.729669  5.969429  5.405633  -17.72967  5.969429  5.405633  -4.290984  13.434637  14.672365  157.647387  67.643349  -167.401096  -46.830705  -41.543607  67.957434  71.086445  -5.841956  -12.493104  41.874929  -0.179963  23.719674  140.016911  53.952987  38.602078  -29.213101  35.810617  -68.847791  50.892412  -14.876916  33.132516  12.013873  -0.767513  3.054633  9.014372  -0.515826  2.307089  
0.0  101.685394  0.0  0.535461  7.88613  -107.262382  21.930128  -25.680283  -81.082534  33.848762  36.434197  108.85848  -7.22756  -5.17624  -3.234921  -20.659045  0.518285  -9.869587  5.755645  5.996956  20.150739  28.092612  -1.539022  8.768791  -6.622148  1.833883  2.190358  -17.956326  5.562667  5.446799  -17.956327  5.562667  5.446799  -2.779321  16.744168  16.43782  157.604893  63.361967  -166.256248  -50.004946  -41.430594  73.56963  72.771856  -6.226178  -11.55831  41.165626  -0.759113  27.658039  142.608231  48.943315  40.405827  -27.433101  39.027564  -66.710054  50.781652  -12.815247  33.051934  12.185578  -0.327332  2.580939  9.140734  -0.194122  1.943143  
0.0  101.685394  0.0  0.407702  7.935166  -107.410912  22.962755  -25.730718  -83.685179  35.978257  38.656628  109.708262  -6.610001  -5.707029  -3.048618  -20.88097  0.417023  -9.355994  5.645144  6.147786  19.727203  27.123646  -1.209789  8.517085  -6.753063  1.692036  2.158133  -18.325  5.179719  5.38559  -18.325001  5.179719  5.38559  -0.954151  20.007277  18.554282  158.401  59.534911  -164.189366  -52.076593  -40.675325  77.961426  74.792338  -6.868962  -10.937431  40.731039  -1.124779  31.169129  143.814345  44.330106  41.053568  -25.056593  40.237504  -63.557833  51.982344  -10.919767  32.392006  12.495396  0.162158  1.883897  9.371147  0.160227  1.410305  
0.0  101.685394  0.0  0.307117  7.930792  -107.2616  23.968979  -25.683551  -86.386941  38.324858  41.000593  110.602908  -5.702662  -6.137508  -2.742561  -21.264924  0.243963  -9.373561  5.638452  6.231723  19.660967  27.458109  -1.239943  8.688236  -6.986087  1.574448  2.131223  -18.97116  4.871466  5.325648  -18.97116  4.871466  5.325649  1.386214  23.067224  20.046052  158.94699  55.911297  -162.370766  -53.049269  -40.39421  81.139321  76.68838  -7.02045  -10.642681  41.046561  -1.543861  33.690211  143.603329  40.015668  40.449147  -21.897091  40.189485  -59.374817  53.877436  -9.838331  31.446524  13.214307  0.666526  0.859871  9.909706  0.51878  0.630829  
0.0  101.685394  0.0  0.244172  7.944595  -106.997673  25.054415  -25.515504  -88.952671  39.96768  41.344031  111.758611  -6.862037  -6.695531  -2.960775  -21.762719  0.102629  -9.754205  5.712203  6.251599  19.970582  26.719643  -1.044653  8.506078  -7.351635  1.338816  2.253127  -19.975664  4.298188  5.695896  -19.975663  4.298188  5.695895  3.997615  26.795034  19.836398  158.881937  52.562475  -160.791759  -53.563812  -41.036778  83.433016  78.068324  -6.241941  -10.820168  42.059428  -0.960529  35.410792  141.951078  36.066966  38.888338  -24.184256  36.701366  -59.273309  66.282925  -14.748605  42.847724  14.364415  1.72249  -0.716997  10.774535  1.27585  -0.578595  
0.0  101.685394  0.0  0.169571  8.001909  -106.778839  25.115261  -40.267795  -98.81129  58.987133  34.805427  116.698624  -7.105155  -6.15107  -2.610631  -22.237195  -0.036721  -10.309353  5.673185  6.216237  20.623458  27.116884  -0.955506  8.736747  -7.869647  1.034278  2.599033  -21.390478  3.628702  6.689696  -21.390477  3.628702  6.689696  6.422363  30.689748  17.147192  158.821522  49.210245  -159.476325  -55.98817  -41.026321  87.230197  82.849185  -8.976615  -16.377867  43.892187  1.194035  36.735486  138.702556  34.565416  37.164078  -29.170679  47.491643  -63.331278  58.76419  -11.249504  45.925147  15.898387  3.036913  -2.850517  11.935463  2.205351  -2.218264  
0.0  101.685394  0.0  0.232459  8.046338  -106.714969  31.1405  -32.130195  -100.438913  54.450449  40.393816  121.175095  -8.386049  -5.827278  -3.272714  -22.540781  -0.020475  -10.891563  5.031438  6.196509  21.26707  28.065363  -0.636676  9.27357  -8.158819  0.757661  3.139851  -22.174047  3.090308  8.222169  -22.174048  3.090308  8.222169  6.567829  34.306199  13.77718  161.605085  45.61172  -154.995591  -57.317365  -49.246612  91.081353  90.874766  -6.126683  -18.692405  44.813544  3.697377  37.615777  133.681048  37.00099  34.466118  -25.437959  53.741187  -63.889588  50.367426  -9.907253  43.536399  16.42759  4.05049  -5.320916  12.35194  2.897595  -4.10161  
0.0  101.685394  0.0  0.084661  8.261371  -106.231523  31.005326  -28.886321  -98.686762  51.609815  42.464923  120.154732  -8.81899  -6.727549  -3.605652  -23.06341  -0.32582  -11.886191  5.152951  6.041712  22.242107  28.213231  -0.314693  9.553378  -7.868182  0.587075  3.707175  -21.36983  2.776752  9.82567  -21.369829  2.776752  9.82567  3.371693  35.16853  10.731547  168.125296  42.108164  -147.944254  -54.012887  -54.49348  94.702644  80.273051  -4.966452  -22.144166  42.643641  4.430931  36.231005  129.976233  38.891039  33.45558  -28.387279  55.045472  -71.24886  50.027831  -12.783169  42.043708  14.854319  3.971131  -7.775187  11.188974  2.791871  -5.929877  
0.0  101.685394  0.0  0.124587  8.761254  -106.047951  29.625683  -26.680977  -97.505981  49.332408  43.250921  118.443089  -9.06445  -6.743837  -2.99338  -23.779157  -0.361076  -12.673062  5.406057  5.990839  23.307118  28.561936  -0.072819  9.73992  -7.401292  0.52537  3.72167  -20.103491  2.546842  9.908079  -20.103491  2.546842  9.90808  1.287309  35.31153  11.881218  170.196142  41.789055  -146.251128  -57.562566  -51.771032  101.551871  74.674065  -3.688731  -21.552284  39.126039  3.513335  36.432942  129.303515  38.928642  34.189569  -30.452462  52.944115  -75.042748  52.347808  -12.589477  43.621961  12.888838  3.66837  -7.884028  9.712593  2.586894  -5.991618  
0.0  101.685394  0.0  0.70565  9.749304  -105.701722  28.066825  -23.625012  -95.597148  46.383042  44.507976  116.513125  -9.140756  -6.512492  -2.289099  -24.831367  0.012196  -13.806648  5.790314  6.143649  24.354233  28.788936  0.145787  9.825272  -7.417614  0.57749  3.511221  -20.151665  2.626442  9.32235  -20.151666  2.626443  9.322351  2.709791  35.291963  13.987127  171.888976  42.148755  -146.869161  -56.713793  -45.120186  103.433574  78.424216  -3.510434  -20.550467  38.40164  3.248534  37.010609  128.29683  38.808277  33.983294  -29.654017  51.774518  -76.209948  55.217325  -11.041848  46.714678  12.716356  3.723322  -7.101654  9.578734  2.646525  -5.404712  
0.0  101.685394  0.0  1.428678  9.721273  -106.959793  26.363082  -23.681494  -91.524083  44.84864  44.034493  114.701435  -9.963689  -6.764227  -2.476419  -24.879964  0.900285  -13.401725  6.455808  6.133406  25.403115  28.873381  0.413598  9.926449  -7.467832  0.898402  3.617047  -20.242877  3.531301  9.511006  -20.242876  3.531301  9.511006  4.605668  33.802504  14.269702  170.12966  42.3095  -149.415102  -56.055911  -43.120658  103.270435  82.150549  -4.335291  -20.777388  39.027535  2.619047  36.146241  129.184558  37.986553  34.426275  -28.69649  51.930782  -75.291602  56.426083  -10.547623  47.949077  13.485022  3.468233  -6.321509  10.14785  2.463431  -4.819085  
0.0  101.685394  0.0  1.753625  9.329616  -107.41422  23.864582  -24.197154  -88.464518  43.643146  42.5124  113.312065  -9.700899  -6.788702  -3.087617  -24.381251  1.030731  -13.480379  6.860704  6.071821  26.249983  28.690326  0.685595  9.98795  -7.623671  1.146383  3.494015  -20.647617  4.183986  9.093321  -20.647616  4.183986  9.093321  7.237587  32.046759  14.68029  166.992536  42.531309  -152.595698  -56.821433  -43.812053  102.726198  81.678337  -5.061732  -21.07428  40.789044  1.778672  36.239952  132.296474  37.144155  35.812654  -28.51828  52.270766  -73.145542  56.81581  -10.744228  46.280035  14.865744  3.112814  -4.907316  11.172411  2.216961  -3.75802  
0.0  101.685394  0.0  1.485699  9.358083  -105.746914  23.773568  -23.214833  -89.120535  42.709046  41.724444  114.206919  -9.555198  -6.375628  -3.510445  -24.115401  -0.039685  -15.24571  6.894208  5.975368  26.912842  28.409256  0.949546  10.046524  -7.889971  1.04932  3.107754  -21.412159  3.834113  8.059104  -21.41216  3.834113  8.059103  9.433661  30.731531  14.57432  163.274551  43.076248  -155.928261  -58.3577  -44.80819  101.799827  79.925631  -4.812627  -20.077899  42.546305  1.311456  36.350172  136.393613  36.192974  38.257656  -28.436854  51.20013  -70.31406  57.182024  -10.702497  43.138387  16.120546  2.984079  -3.470574  12.105076  2.148357  -2.68336  
0.0  101.685394  0.0  1.01121  9.842497  -104.640228  24.061115  -21.936785  -89.033865  41.39404  41.424159  115.478888  -10.179791  -6.056996  -3.664113  -24.213096  -0.855958  -16.417283  6.644825  5.85421  27.466699  28.191204  1.219017  10.091939  -7.992778  0.881222  2.82049  -21.726636  3.299749  7.329282  -21.726638  3.299749  7.329282  9.827506  29.867306  14.472464  160.457188  44.177683  -158.644186  -58.203673  -45.388315  99.218655  78.600608  -4.537969  -18.953665  42.591661  0.995556  36.446045  140.443655  35.224507  40.869121  -28.458879  49.067442  -68.039861  57.365931  -10.161761  40.702274  16.258761  2.830779  -2.167436  12.201803  2.06718  -1.702068  
0.0  101.685394  0.0  0.575462  10.38016  -104.463596  23.876291  -21.237587  -87.686129  40.115144  41.149872  116.76061  -11.047134  -5.725127  -3.784949  -24.388216  -1.21086  -16.765508  6.263383  5.788454  27.991627  28.133606  1.446844  10.134255  -7.917079  0.772135  2.610388  -21.540787  2.929812  6.800601  -21.540788  2.929812  6.800602  9.213846  29.44382  14.976655  158.79486  45.22437  -160.616196  -56.656571  -45.465904  96.107561  77.947555  -4.592126  -18.014686  41.486653  0.532922  37.327668  143.683624  34.628328  42.973732  -28.258625  46.690026  -65.97592  57.03451  -8.453147  39.433952  15.577358  2.542813  -0.933539  11.685012  1.884768  -0.765504  
0.0  101.685394  0.0  0.450783  11.025155  -104.230543  23.0363  -20.660474  -85.613173  38.661487  40.959578  117.576436  -11.783822  -5.171454  -4.009093  -24.703824  -1.235717  -17.296295  5.887296  5.75909  28.506061  28.123659  1.552513  10.153501  -7.837658  0.69682  2.365654  -21.341845  2.640587  6.167149  -21.341844  2.640587  6.167149  8.524571  29.609974  15.851545  158.068844  46.296141  -161.966039  -54.927654  -44.653682  93.677517  77.836308  -4.814302  -16.990869  40.320078  0.139299  38.63977  145.583447  34.299871  44.451725  -28.182467  44.241781  -64.768942  57.108821  -6.306724  39.089496  14.722584  2.257726  0.062838  11.040276  1.695975  -0.007314  
0.0  101.685394  0.0  0.453291  11.763936  -103.880958  22.090054  -21.102523  -83.375583  38.289844  41.050565  118.684938  -12.30342  -4.463845  -4.39296  -25.286702  -1.217638  -17.954294  5.732226  5.748836  29.029283  28.321133  1.588403  10.164027  -7.863457  0.705451  2.103338  -21.423672  2.582063  5.454358  -21.423671  2.582063  5.454358  8.445524  29.791442  17.072566  157.989168  47.431222  -162.666299  -53.717826  -43.404871  92.201913  77.750413  -5.194767  -15.830779  39.824715  -0.4787  40.048589  146.176989  34.356457  45.22379  -28.371307  41.861289  -64.946082  57.705933  -4.197043  39.170341  14.187526  1.782116  0.815918  10.637431  1.356402  0.57086  
